<mxfile host="app.diagrams.net" modified="2023-07-05T23:28:23.973Z" agent="Mozilla/5.0 (Windows NT 10.0; Win64; x64) AppleWebKit/537.36 (KHTML, like Gecko) Chrome/114.0.0.0 Safari/537.36 Edg/114.0.1823.67" etag="qn7xncK3W4cVrjfYI5Ge" version="21.5.2" type="github">
  <diagram id="-ZYwGclwelCAX37J9-wN" name="PÃ¡gina-1">
    <mxGraphModel dx="1434" dy="796" grid="1" gridSize="10" guides="1" tooltips="1" connect="1" arrows="1" fold="1" page="1" pageScale="1" pageWidth="827" pageHeight="1169" math="0" shadow="0">
      <root>
        <mxCell id="0" />
        <mxCell id="1" parent="0" />
        <mxCell id="VPN1VsBOU7PhofwchmGw-18" style="edgeStyle=orthogonalEdgeStyle;rounded=0;orthogonalLoop=1;jettySize=auto;html=1;exitX=0;exitY=0.5;exitDx=0;exitDy=0;entryX=0.969;entryY=0.481;entryDx=0;entryDy=0;entryPerimeter=0;shape=link;" edge="1" parent="1" source="VPN1VsBOU7PhofwchmGw-1" target="VPN1VsBOU7PhofwchmGw-17">
          <mxGeometry relative="1" as="geometry" />
        </mxCell>
        <mxCell id="VPN1VsBOU7PhofwchmGw-1" value="Raspberry Pi 4" style="rounded=1;whiteSpace=wrap;html=1;fillColor=#6a00ff;fontColor=#ffffff;strokeColor=#3700CC;" vertex="1" parent="1">
          <mxGeometry x="170" y="380" width="120" height="50" as="geometry" />
        </mxCell>
        <mxCell id="VPN1VsBOU7PhofwchmGw-3" style="edgeStyle=orthogonalEdgeStyle;rounded=0;orthogonalLoop=1;jettySize=auto;html=1;exitX=0.5;exitY=1;exitDx=0;exitDy=0;entryX=0.5;entryY=0;entryDx=0;entryDy=0;shape=link;" edge="1" parent="1" source="VPN1VsBOU7PhofwchmGw-2" target="VPN1VsBOU7PhofwchmGw-1">
          <mxGeometry relative="1" as="geometry" />
        </mxCell>
        <mxCell id="VPN1VsBOU7PhofwchmGw-2" value="Raspberry Pico" style="rounded=1;whiteSpace=wrap;html=1;fillColor=#6a00ff;fontColor=#ffffff;strokeColor=#3700CC;" vertex="1" parent="1">
          <mxGeometry x="170" y="290" width="120" height="50" as="geometry" />
        </mxCell>
        <mxCell id="VPN1VsBOU7PhofwchmGw-6" style="edgeStyle=orthogonalEdgeStyle;rounded=0;orthogonalLoop=1;jettySize=auto;html=1;exitX=0.375;exitY=1;exitDx=0;exitDy=0;entryX=0.25;entryY=0;entryDx=0;entryDy=0;shape=link;" edge="1" parent="1" source="VPN1VsBOU7PhofwchmGw-4" target="VPN1VsBOU7PhofwchmGw-2">
          <mxGeometry relative="1" as="geometry">
            <Array as="points">
              <mxPoint x="200" y="220" />
            </Array>
          </mxGeometry>
        </mxCell>
        <mxCell id="VPN1VsBOU7PhofwchmGw-4" value="Sensor de temperatura" style="shape=hexagon;perimeter=hexagonPerimeter2;whiteSpace=wrap;html=1;fixedSize=1;fillColor=#60a917;strokeColor=#2D7600;fontColor=#ffffff;" vertex="1" parent="1">
          <mxGeometry x="160" y="190" width="120" height="30" as="geometry" />
        </mxCell>
        <mxCell id="VPN1VsBOU7PhofwchmGw-7" style="edgeStyle=orthogonalEdgeStyle;rounded=0;orthogonalLoop=1;jettySize=auto;html=1;exitX=0.375;exitY=1;exitDx=0;exitDy=0;entryX=0.75;entryY=0;entryDx=0;entryDy=0;shape=link;fillColor=#ffff88;strokeColor=#36393d;" edge="1" parent="1" source="VPN1VsBOU7PhofwchmGw-5" target="VPN1VsBOU7PhofwchmGw-2">
          <mxGeometry relative="1" as="geometry" />
        </mxCell>
        <mxCell id="VPN1VsBOU7PhofwchmGw-5" value="Sensor de nivel de agua" style="shape=hexagon;perimeter=hexagonPerimeter2;whiteSpace=wrap;html=1;fixedSize=1;fillColor=#60a917;fontColor=#ffffff;strokeColor=#2D7600;" vertex="1" parent="1">
          <mxGeometry x="310" y="190" width="130" height="30" as="geometry" />
        </mxCell>
        <mxCell id="VPN1VsBOU7PhofwchmGw-9" style="edgeStyle=orthogonalEdgeStyle;rounded=0;orthogonalLoop=1;jettySize=auto;html=1;exitX=0.5;exitY=0;exitDx=0;exitDy=0;entryX=0.5;entryY=1;entryDx=0;entryDy=0;shape=link;" edge="1" parent="1" source="VPN1VsBOU7PhofwchmGw-8" target="VPN1VsBOU7PhofwchmGw-1">
          <mxGeometry relative="1" as="geometry" />
        </mxCell>
        <mxCell id="VPN1VsBOU7PhofwchmGw-8" value="WebCam" style="shape=hexagon;perimeter=hexagonPerimeter2;whiteSpace=wrap;html=1;fixedSize=1;fillColor=#1ba1e2;fontColor=#ffffff;strokeColor=#006EAF;" vertex="1" parent="1">
          <mxGeometry x="170" y="480" width="120" height="30" as="geometry" />
        </mxCell>
        <mxCell id="VPN1VsBOU7PhofwchmGw-11" style="edgeStyle=orthogonalEdgeStyle;rounded=0;orthogonalLoop=1;jettySize=auto;html=1;exitX=0;exitY=0.5;exitDx=0;exitDy=0;entryX=1;entryY=0.5;entryDx=0;entryDy=0;shape=link;" edge="1" parent="1" source="VPN1VsBOU7PhofwchmGw-10" target="VPN1VsBOU7PhofwchmGw-1">
          <mxGeometry relative="1" as="geometry" />
        </mxCell>
        <mxCell id="VPN1VsBOU7PhofwchmGw-13" style="edgeStyle=orthogonalEdgeStyle;rounded=0;orthogonalLoop=1;jettySize=auto;html=1;exitX=1;exitY=0.5;exitDx=0;exitDy=0;entryX=0;entryY=0.5;entryDx=0;entryDy=0;shape=link;" edge="1" parent="1" source="VPN1VsBOU7PhofwchmGw-10" target="VPN1VsBOU7PhofwchmGw-12">
          <mxGeometry relative="1" as="geometry" />
        </mxCell>
        <mxCell id="VPN1VsBOU7PhofwchmGw-10" value="Modulo MOSFET con optoacoplador" style="shape=process;whiteSpace=wrap;html=1;backgroundOutline=1;fillColor=#647687;fontColor=#ffffff;strokeColor=#314354;" vertex="1" parent="1">
          <mxGeometry x="340" y="383.75" width="120" height="42.5" as="geometry" />
        </mxCell>
        <mxCell id="VPN1VsBOU7PhofwchmGw-12" value="Tira RGB" style="shape=hexagon;perimeter=hexagonPerimeter2;whiteSpace=wrap;html=1;fixedSize=1;fillColor=#a20025;fontColor=#ffffff;strokeColor=#6F0000;" vertex="1" parent="1">
          <mxGeometry x="500" y="390" width="120" height="30" as="geometry" />
        </mxCell>
        <mxCell id="VPN1VsBOU7PhofwchmGw-17" value="Cliente" style="image;aspect=fixed;html=1;points=[];align=center;fontSize=12;image=img/lib/azure2/app_services/App_Service_Domains.svg;" vertex="1" parent="1">
          <mxGeometry x="40" y="380" width="65" height="52" as="geometry" />
        </mxCell>
      </root>
    </mxGraphModel>
  </diagram>
</mxfile>
